{"title":"Dabangg 2 (2012) Hindi SCAMRip MPEG1 NiCkkkDoN","uid":7944968,"size":693042480,"categoryP":"video","categoryS":"movies","magnet":"?xt=urn:btih:12d354f604ebb6a89c67e082b47c95b9a59d4af9&amp;dn=Dabangg+2+%282012%29+Hindi+SCAMRip+MPEG1+NiCkkkDoN&amp;tr=udp%3A%2F%2Ftracker.openbittorrent.com%3A80&amp;tr=udp%3A%2F%2Fopen.demonii.com%3A1337&amp;tr=udp%3A%2F%2Ftracker.coppersurfer.tk%3A6969&amp;tr=udp%3A%2F%2Fexodus.desync.com%3A6969","seeders":0,"leechers":0,"uploader":"AnjuIndia","files":9,"time":1356104269,"description":"[img]http://s15.postimage.org/4o591o463/nick_new_sign.jpg[/img]\n\nProudly Present\n\n======================================================================\nDabangg 2 (2012) Hindi SCAMRip MPEG1 NiCkkkDoN\n======================================================================\n\n[img]http://s9.postimage.org/r32i52uan/png.png[/img]\n\n[b]Release Info:[/b]\n\n[code]\nGeneral\nFormat                           : MPEG-PS\nFile size                        : 661 MiB\nDuration                         : 1h 54mn\nOverall bit rate                 : 808 Kbps\n\nVideo\nID                               : 224 (0xE0)\nFormat                           : MPEG Video\nFormat version                   : Version 2\nFormat profile                   : Main@Main\nFormat settings, BVOP            : Yes\nFormat settings, Matrix          : Default\nDuration                         : 1h 54mn\nBit rate mode                    : Variable\nBit rate                         : 664 Kbps\nNominal bit rate                 : 9 672 Kbps\nWidth                            : 352 pixels\nHeight                           : 288 pixels\nDisplay aspect ratio             : 4:3\nFrame rate                       : 25.000 fps\nStandard                         : PAL\nColor space                      : YUV\nChroma subsampling               : 4:2:0\nBit depth                        : 8 bits\nScan type                        : Progressive\nCompression mode                 : Lossy\nBits/(Pixel*Frame)               : 0.262\nStream size                      : 543 MiB (82%)\n\nAudio\nID                               : 192 (0xC0)\nFormat                           : MPEG Audio\nFormat version                   : Version 1\nFormat profile                   : Layer 2\nDuration                         : 1h 54mn\nBit rate mode                    : Constant\nBit rate                         : 128 Kbps\nChannel(s)                       : 2 channels\nSampling rate                    : 48.0 KHz\nCompression mode                 : Lossy\nDelay relative to video          : -600ms\nStream size                      : 105 MiB (16%)\n[/code]\n\n[b]Screenshots:[/b]\n\n[b]NiCkkkDoN's Notes[/b]\n\n[code]\nEnjoy 1st day LaSt Sh0W\n\nHave anything to offer????......\nContact me\n[/code]","torrent":{"xt":"urn:btih:12d354f604ebb6a89c67e082b47c95b9a59d4af9","amp;dn":"Dabangg+2+%282012%29+Hindi+SCAMRip+MPEG1+NiCkkkDoN","amp;tr":["udp%3A%2F%2Ftracker.openbittorrent.com%3A80","udp%3A%2F%2Fopen.demonii.com%3A1337","udp%3A%2F%2Ftracker.coppersurfer.tk%3A6969","udp%3A%2F%2Fexodus.desync.com%3A6969"],"infoHash":"12d354f604ebb6a89c67e082b47c95b9a59d4af9","infoHashBuffer":{"type":"Buffer","data":[18,211,84,246,4,235,182,168,156,103,224,130,180,124,149,185,165,157,74,249]},"announce":[],"urlList":[]}}